# Tiled2Unity generated file. Do not modify by hand.
# Wavefront file for 'BUNKER.E.1.1_mesh_0003.obj'

# Vertices (Count = 404)
v 0 -15 0
v -1 -15 0
v -1 -14 0
v 0 -14 0
v -1 -15 0
v -2 -15 0
v -2 -14 0
v -1 -14 0
v -2 -15 0
v -3 -15 0
v -3 -14 0
v -2 -14 0
v -3 -15 0
v -4 -15 0
v -4 -14 0
v -3 -14 0
v -4 -15 0
v -5 -15 0
v -5 -14 0
v -4 -14 0
v -5 -15 0
v -6 -15 0
v -6 -14 0
v -5 -14 0
v -11 -15 0
v -12 -15 0
v -12 -14 0
v -11 -14 0
v -12 -15 0
v -13 -15 0
v -13 -14 0
v -12 -14 0
v -13 -15 0
v -14 -15 0
v -14 -14 0
v -13 -14 0
v -14 -15 0
v -15 -15 0
v -15 -14 0
v -14 -14 0
v -15 -15 0
v -16 -15 0
v -16 -14 0
v -15 -14 0
v -16 -15 0
v -17 -15 0
v -17 -14 0
v -16 -14 0
v -20 -15 0
v -21 -15 0
v -21 -14 0
v -20 -14 0
v -21 -15 0
v -22 -15 0
v -22 -14 0
v -21 -14 0
v -22 -15 0
v -23 -15 0
v -23 -14 0
v -22 -14 0
v -23 -15 0
v -24 -15 0
v -24 -14 0
v -23 -14 0
v -24 -15 0
v -25 -15 0
v -25 -14 0
v -24 -14 0
v -25 -15 0
v -26 -15 0
v -26 -14 0
v -25 -14 0
v -26 -15 0
v -27 -15 0
v -27 -14 0
v -26 -14 0
v -27 -15 0
v -28 -15 0
v -28 -14 0
v -27 -14 0
v -28 -15 0
v -29 -15 0
v -29 -14 0
v -28 -14 0
v -29 -15 0
v -30 -15 0
v -30 -14 0
v -29 -14 0
v 0 -14 0
v -1 -14 0
v -1 -13 0
v 0 -13 0
v -1 -14 0
v -2 -14 0
v -2 -13 0
v -1 -13 0
v -2 -14 0
v -3 -14 0
v -3 -13 0
v -2 -13 0
v -3 -14 0
v -4 -14 0
v -4 -13 0
v -3 -13 0
v -4 -14 0
v -5 -14 0
v -5 -13 0
v -4 -13 0
v -5 -14 0
v -6 -14 0
v -6 -13 0
v -5 -13 0
v -11 -14 0
v -12 -14 0
v -12 -13 0
v -11 -13 0
v -12 -14 0
v -13 -14 0
v -13 -13 0
v -12 -13 0
v -13 -14 0
v -14 -14 0
v -14 -13 0
v -13 -13 0
v -14 -14 0
v -15 -14 0
v -15 -13 0
v -14 -13 0
v -15 -14 0
v -16 -14 0
v -16 -13 0
v -15 -13 0
v -16 -14 0
v -17 -14 0
v -17 -13 0
v -16 -13 0
v -20 -14 0
v -21 -14 0
v -21 -13 0
v -20 -13 0
v -21 -14 0
v -22 -14 0
v -22 -13 0
v -21 -13 0
v -22 -14 0
v -23 -14 0
v -23 -13 0
v -22 -13 0
v -23 -14 0
v -24 -14 0
v -24 -13 0
v -23 -13 0
v -24 -14 0
v -25 -14 0
v -25 -13 0
v -24 -13 0
v -25 -14 0
v -26 -14 0
v -26 -13 0
v -25 -13 0
v -26 -14 0
v -27 -14 0
v -27 -13 0
v -26 -13 0
v -27 -14 0
v -28 -14 0
v -28 -13 0
v -27 -13 0
v -28 -14 0
v -29 -14 0
v -29 -13 0
v -28 -13 0
v -29 -14 0
v -30 -14 0
v -30 -13 0
v -29 -13 0
v 0 -13 0
v -1 -13 0
v -1 -12 0
v 0 -12 0
v -1 -13 0
v -2 -13 0
v -2 -12 0
v -1 -12 0
v -2 -13 0
v -3 -13 0
v -3 -12 0
v -2 -12 0
v -3 -13 0
v -4 -13 0
v -4 -12 0
v -3 -12 0
v -4 -13 0
v -5 -13 0
v -5 -12 0
v -4 -12 0
v -5 -13 0
v -6 -13 0
v -6 -12 0
v -5 -12 0
v -11 -13 0
v -12 -13 0
v -12 -12 0
v -11 -12 0
v -12 -13 0
v -13 -13 0
v -13 -12 0
v -12 -12 0
v -13 -13 0
v -14 -13 0
v -14 -12 0
v -13 -12 0
v -14 -13 0
v -15 -13 0
v -15 -12 0
v -14 -12 0
v -15 -13 0
v -16 -13 0
v -16 -12 0
v -15 -12 0
v -16 -13 0
v -17 -13 0
v -17 -12 0
v -16 -12 0
v -20 -13 0
v -21 -13 0
v -21 -12 0
v -20 -12 0
v -21 -13 0
v -22 -13 0
v -22 -12 0
v -21 -12 0
v -22 -13 0
v -23 -13 0
v -23 -12 0
v -22 -12 0
v -23 -13 0
v -24 -13 0
v -24 -12 0
v -23 -12 0
v -24 -13 0
v -25 -13 0
v -25 -12 0
v -24 -12 0
v -25 -13 0
v -26 -13 0
v -26 -12 0
v -25 -12 0
v -26 -13 0
v -27 -13 0
v -27 -12 0
v -26 -12 0
v -27 -13 0
v -28 -13 0
v -28 -12 0
v -27 -12 0
v -28 -13 0
v -29 -13 0
v -29 -12 0
v -28 -12 0
v -29 -13 0
v -30 -13 0
v -30 -12 0
v -29 -12 0
v 0 -12 0
v -1 -12 0
v -1 -11 0
v 0 -11 0
v -1 -12 0
v -2 -12 0
v -2 -11 0
v -1 -11 0
v -2 -12 0
v -3 -12 0
v -3 -11 0
v -2 -11 0
v -3 -12 0
v -4 -12 0
v -4 -11 0
v -3 -11 0
v -4 -12 0
v -5 -12 0
v -5 -11 0
v -4 -11 0
v -5 -12 0
v -6 -12 0
v -6 -11 0
v -5 -11 0
v -11 -12 0
v -12 -12 0
v -12 -11 0
v -11 -11 0
v -12 -12 0
v -13 -12 0
v -13 -11 0
v -12 -11 0
v -13 -12 0
v -14 -12 0
v -14 -11 0
v -13 -11 0
v -14 -12 0
v -15 -12 0
v -15 -11 0
v -14 -11 0
v -15 -12 0
v -16 -12 0
v -16 -11 0
v -15 -11 0
v -16 -12 0
v -17 -12 0
v -17 -11 0
v -16 -11 0
v -21 -12 0
v -22 -12 0
v -22 -11 0
v -21 -11 0
v -22 -12 0
v -23 -12 0
v -23 -11 0
v -22 -11 0
v -23 -12 0
v -24 -12 0
v -24 -11 0
v -23 -11 0
v -24 -12 0
v -25 -12 0
v -25 -11 0
v -24 -11 0
v -25 -12 0
v -26 -12 0
v -26 -11 0
v -25 -11 0
v -26 -12 0
v -27 -12 0
v -27 -11 0
v -26 -11 0
v -27 -12 0
v -28 -12 0
v -28 -11 0
v -27 -11 0
v -28 -12 0
v -29 -12 0
v -29 -11 0
v -28 -11 0
v -29 -12 0
v -30 -12 0
v -30 -11 0
v -29 -11 0
v -22 -11 0
v -23 -11 0
v -23 -10 0
v -22 -10 0
v -23 -11 0
v -24 -11 0
v -24 -10 0
v -23 -10 0
v -24 -11 0
v -25 -11 0
v -25 -10 0
v -24 -10 0
v -25 -11 0
v -26 -11 0
v -26 -10 0
v -25 -10 0
v -26 -11 0
v -27 -11 0
v -27 -10 0
v -26 -10 0
v -27 -11 0
v -28 -11 0
v -28 -10 0
v -27 -10 0
v -28 -11 0
v -29 -11 0
v -29 -10 0
v -28 -10 0
v -29 -11 0
v -30 -11 0
v -30 -10 0
v -29 -10 0
v -24 -10 0
v -25 -10 0
v -25 -9 0
v -24 -9 0
v -25 -10 0
v -26 -10 0
v -26 -9 0
v -25 -9 0
v -26 -10 0
v -27 -10 0
v -27 -9 0
v -26 -9 0
v -27 -10 0
v -28 -10 0
v -28 -9 0
v -27 -9 0
v -28 -10 0
v -29 -10 0
v -29 -9 0
v -28 -9 0
v -29 -10 0
v -30 -10 0
v -30 -9 0
v -29 -9 0

# Texture cooridinates (Count = 35)
vt 0 0.1515151
vt 0.1627907 0.1515151
vt 0.1627907 0.3636364
vt 0 0.3636364
vt 0.3255814 0.1515151
vt 0.3255814 0.3636364
vt 0.4883721 0.1515151
vt 0.4883721 0.3636364
vt 0.6511628 0.1515151
vt 0.6511628 0.3636364
vt 0.8139535 0.1515151
vt 0.8139535 0.3636364
vt 0.9767442 0.1515151
vt 0.9767442 0.3636364
vt 0.8139535 0.5757576
vt 0.6511628 0.5757576
vt 0.1627907 0.5757576
vt 0 0.5757576
vt 0.3255814 0.5757576
vt 0.4883721 0.5757576
vt 0.9767442 0.5757576
vt 0.1627907 0.7878788
vt 0 0.7878788
vt 0.3255814 0.7878788
vt 0.4883721 0.7878788
vt 0.6511628 0.7878788
vt 0.8139535 0.7878788
vt 0.9767442 0.7878788
vt 0.1627907 1
vt 0 1
vt 0.3255814 1
vt 0.4883721 1
vt 0.6511628 1
vt 0.8139535 1
vt 0.9767442 1

# Normal
vn 0 0 -1

# Mesh description
g BUNKER.E.1.1_mesh_0003

# Faces
f 1/1/1 2/2/1 3/3/1 4/4/1
f 5/2/1 6/5/1 7/6/1 8/3/1
f 9/5/1 10/7/1 11/8/1 12/6/1
f 13/7/1 14/9/1 15/10/1 16/8/1
f 17/9/1 18/11/1 19/12/1 20/10/1
f 21/11/1 22/13/1 23/14/1 24/12/1
f 25/1/1 26/2/1 27/3/1 28/4/1
f 29/2/1 30/5/1 31/6/1 32/3/1
f 33/5/1 34/7/1 35/8/1 36/6/1
f 37/7/1 38/9/1 39/10/1 40/8/1
f 41/9/1 42/11/1 43/12/1 44/10/1
f 45/11/1 46/13/1 47/14/1 48/12/1
f 49/10/1 50/12/1 51/15/1 52/16/1
f 53/10/1 54/12/1 55/15/1 56/16/1
f 57/10/1 58/12/1 59/15/1 60/16/1
f 61/5/1 62/7/1 63/8/1 64/6/1
f 65/10/1 66/12/1 67/15/1 68/16/1
f 69/10/1 70/12/1 71/15/1 72/16/1
f 73/10/1 74/12/1 75/15/1 76/16/1
f 77/10/1 78/12/1 79/15/1 80/16/1
f 81/10/1 82/12/1 83/15/1 84/16/1
f 85/11/1 86/13/1 87/14/1 88/12/1
f 89/4/1 90/3/1 91/17/1 92/18/1
f 93/3/1 94/6/1 95/19/1 96/17/1
f 97/6/1 98/8/1 99/20/1 100/19/1
f 101/8/1 102/10/1 103/16/1 104/20/1
f 105/10/1 106/12/1 107/15/1 108/16/1
f 109/12/1 110/14/1 111/21/1 112/15/1
f 113/4/1 114/3/1 115/17/1 116/18/1
f 117/3/1 118/6/1 119/19/1 120/17/1
f 121/6/1 122/8/1 123/20/1 124/19/1
f 125/8/1 126/10/1 127/16/1 128/20/1
f 129/10/1 130/12/1 131/15/1 132/16/1
f 133/12/1 134/14/1 135/21/1 136/15/1
f 137/10/1 138/12/1 139/15/1 140/16/1
f 141/10/1 142/12/1 143/15/1 144/16/1
f 145/10/1 146/12/1 147/15/1 148/16/1
f 149/10/1 150/12/1 151/15/1 152/16/1
f 153/10/1 154/12/1 155/15/1 156/16/1
f 157/10/1 158/12/1 159/15/1 160/16/1
f 161/10/1 162/12/1 163/15/1 164/16/1
f 165/10/1 166/12/1 167/15/1 168/16/1
f 169/10/1 170/12/1 171/15/1 172/16/1
f 173/10/1 174/12/1 175/15/1 176/16/1
f 177/18/1 178/17/1 179/22/1 180/23/1
f 181/17/1 182/19/1 183/24/1 184/22/1
f 185/19/1 186/20/1 187/25/1 188/24/1
f 189/20/1 190/16/1 191/26/1 192/25/1
f 193/16/1 194/15/1 195/27/1 196/26/1
f 197/15/1 198/21/1 199/28/1 200/27/1
f 201/18/1 202/17/1 203/22/1 204/23/1
f 205/17/1 206/19/1 207/24/1 208/22/1
f 209/19/1 210/20/1 211/25/1 212/24/1
f 213/20/1 214/16/1 215/26/1 216/25/1
f 217/16/1 218/15/1 219/27/1 220/26/1
f 221/15/1 222/21/1 223/28/1 224/27/1
f 225/19/1 226/20/1 227/25/1 228/24/1
f 229/10/1 230/12/1 231/15/1 232/16/1
f 233/10/1 234/12/1 235/15/1 236/16/1
f 237/3/1 238/6/1 239/19/1 240/17/1
f 241/10/1 242/12/1 243/15/1 244/16/1
f 245/10/1 246/12/1 247/15/1 248/16/1
f 249/10/1 250/12/1 251/15/1 252/16/1
f 253/10/1 254/12/1 255/15/1 256/16/1
f 257/10/1 258/12/1 259/15/1 260/16/1
f 261/10/1 262/12/1 263/15/1 264/16/1
f 265/23/1 266/22/1 267/29/1 268/30/1
f 269/22/1 270/24/1 271/31/1 272/29/1
f 273/24/1 274/25/1 275/32/1 276/31/1
f 277/25/1 278/26/1 279/33/1 280/32/1
f 281/26/1 282/27/1 283/34/1 284/33/1
f 285/27/1 286/28/1 287/35/1 288/34/1
f 289/23/1 290/22/1 291/29/1 292/30/1
f 293/22/1 294/24/1 295/31/1 296/29/1
f 297/24/1 298/25/1 299/32/1 300/31/1
f 301/25/1 302/26/1 303/33/1 304/32/1
f 305/26/1 306/27/1 307/34/1 308/33/1
f 309/27/1 310/28/1 311/35/1 312/34/1
f 313/19/1 314/20/1 315/25/1 316/24/1
f 317/10/1 318/12/1 319/15/1 320/16/1
f 321/10/1 322/12/1 323/15/1 324/16/1
f 325/10/1 326/12/1 327/15/1 328/16/1
f 329/10/1 330/12/1 331/15/1 332/16/1
f 333/10/1 334/12/1 335/15/1 336/16/1
f 337/10/1 338/12/1 339/15/1 340/16/1
f 341/10/1 342/12/1 343/15/1 344/16/1
f 345/10/1 346/12/1 347/15/1 348/16/1
f 349/19/1 350/20/1 351/25/1 352/24/1
f 353/19/1 354/20/1 355/25/1 356/24/1
f 357/4/1 358/3/1 359/17/1 360/18/1
f 361/3/1 362/6/1 363/19/1 364/17/1
f 365/6/1 366/8/1 367/20/1 368/19/1
f 369/8/1 370/10/1 371/16/1 372/20/1
f 373/10/1 374/12/1 375/15/1 376/16/1
f 377/12/1 378/14/1 379/21/1 380/15/1
f 381/17/1 382/19/1 383/24/1 384/22/1
f 385/19/1 386/20/1 387/25/1 388/24/1
f 389/19/1 390/20/1 391/25/1 392/24/1
f 393/19/1 394/20/1 395/25/1 396/24/1
f 397/19/1 398/20/1 399/25/1 400/24/1
f 401/19/1 402/20/1 403/25/1 404/24/1

