# Tiled2Unity generated file. Do not modify by hand.
# Wavefront file for 'bunker1.22new_mesh_0002.obj'

# Vertices (Count = 48)
v -29 -9 0
v -30 -9 0
v -30 -8 0
v -29 -8 0
v -29 -8 0
v -30 -8 0
v -30 -7 0
v -29 -7 0
v -24 -6 0
v -25 -6 0
v -25 -5 0
v -24 -5 0
v -25 -6 0
v -26 -6 0
v -26 -5 0
v -25 -5 0
v -12 -3 0
v -13 -3 0
v -13 -2 0
v -12 -2 0
v -13 -3 0
v -14 -3 0
v -14 -2 0
v -13 -2 0
v -14 -3 0
v -15 -3 0
v -15 -2 0
v -14 -2 0
v -15 -3 0
v -16 -3 0
v -16 -2 0
v -15 -2 0
v -16 -3 0
v -17 -3 0
v -17 -2 0
v -16 -2 0
v -17 -3 0
v -18 -3 0
v -18 -2 0
v -17 -2 0
v -18 -3 0
v -19 -3 0
v -19 -2 0
v -18 -2 0
v -19 -3 0
v -20 -3 0
v -20 -2 0
v -19 -2 0

# Texture cooridinates (Count = 28)
vt 0.3684971 0.1690751
vt 0.3988439 0.1690751
vt 0.3988439 0.1994219
vt 0.3684971 0.1994219
vt 0.3684971 0.2023121
vt 0.3988439 0.2023121
vt 0.3988439 0.232659
vt 0.3684971 0.232659
vt 0.1690751 0.6343931
vt 0.199422 0.6343931
vt 0.199422 0.6647398
vt 0.1690751 0.6647398
vt 0.1690751 0.6011561
vt 0.199422 0.6011561
vt 0.199422 0.6315029
vt 0.1690751 0.6315029
vt 0.03612717 0.6011561
vt 0.06647399 0.6011561
vt 0.06647399 0.6315029
vt 0.03612717 0.6315029
vt 0.06936416 0.6343931
vt 0.09971099 0.6343931
vt 0.09971099 0.6647398
vt 0.06936416 0.6647398
vt 0.1026012 0.6011561
vt 0.132948 0.6011561
vt 0.132948 0.6315029
vt 0.1026012 0.6315029

# Normal
vn 0 0 -1

# Mesh description
g bunker1.22new_mesh_0002

# Faces
f 1/1/1 2/2/1 3/3/1 4/4/1
f 5/5/1 6/6/1 7/7/1 8/8/1
f 9/9/1 10/10/1 11/11/1 12/12/1
f 13/13/1 14/14/1 15/15/1 16/16/1
f 17/17/1 18/18/1 19/19/1 20/20/1
f 21/21/1 22/22/1 23/23/1 24/24/1
f 25/21/1 26/22/1 27/23/1 28/24/1
f 29/21/1 30/22/1 31/23/1 32/24/1
f 33/21/1 34/22/1 35/23/1 36/24/1
f 37/21/1 38/22/1 39/23/1 40/24/1
f 41/21/1 42/22/1 43/23/1 44/24/1
f 45/25/1 46/26/1 47/27/1 48/28/1

